<svg width="111" height="107" viewBox="0 0 111 107" fill="none" xmlns="http://www.w3.org/2000/svg">
<path fill-rule="evenodd" clip-rule="evenodd" d="M19.0037 72.3899C28.3926 72.3899 36.0037 80.0011 36.0037 89.3899C36.0037 98.7788 28.3926 106.39 19.0037 106.39C9.61488 106.39 2.00372 98.7788 2.00372 89.3899C2.00372 80.0011 9.61488 72.3899 19.0037 72.3899ZM19.0037 80.3899C14.0332 80.3899 10.0037 84.4194 10.0037 89.3899C10.0037 94.3605 14.0332 98.3899 19.0037 98.3899C23.9743 98.3899 28.0037 94.3605 28.0037 89.3899C28.0037 84.4194 23.9743 80.3899 19.0037 80.3899Z" fill="#D4622A"/>
<path fill-rule="evenodd" clip-rule="evenodd" d="M91.0311 72.3899C100.42 72.3899 108.031 80.0011 108.031 89.3899C108.031 98.7788 100.42 106.39 91.0311 106.39C81.6422 106.39 74.0311 98.7788 74.0311 89.3899C74.0311 80.0011 81.6422 72.3899 91.0311 72.3899ZM91.0311 80.3899C86.0605 80.3899 82.0311 84.4194 82.0311 89.3899C82.0311 94.3605 86.0605 98.3899 91.0311 98.3899C96.0016 98.3899 100.031 94.3605 100.031 89.3899C100.031 84.4194 96.0016 80.3899 91.0311 80.3899Z" fill="#D4622A"/>
<path d="M52.0037 5.69169C53.5311 3.69169 56.5311 3.6917 58.2557 5.69169C59.9625 7.6711 94.311 64.0135 94.0486 67.597C93.062 67.4616 92.0548 67.3899 91.0311 67.3899C87.983 67.3899 85.0796 68.0096 82.4402 69.1302C80.2821 67.1784 57.9864 22.1873 55.3055 21.9202C52.6176 21.6525 30.1632 67.3986 27.6248 69.1429C24.9774 68.0142 22.0634 67.3899 19.0037 67.3899C18.1523 67.3899 17.3124 67.4394 16.4861 67.5335C16.6355 64.0228 50.5113 7.64596 52.0037 5.69169Z" fill="white"/>
<path d="M109.892 5.99833C110.531 9.69169 88.5311 56.6917 85.0037 58.5901C81.4764 60.4886 27.5311 60.1917 25.5037 58.5901C23.4764 56.9886 0.0310849 8.80497 1.03108 5.99833C2.03108 3.1917 7.50179 0.191687 10.2664 1.69169C13.0311 3.1917 29.6151 46.1507 31.8231 47.9212C34.0311 49.6917 77.1698 49.6507 79.1004 47.9212C81.0311 46.1917 97.785 3.69169 100.658 1.69169C103.531 -0.308308 109.254 2.30497 109.892 5.99833Z" fill="#D4622A"/>
</svg>
